# xmcd
#
# Track frame offsets:
# 187
# 12682
# 25505
# 39322
# 50632
# 64410
# 77837
# 90822
# 103292
# 115107
# 127697
# 142382
#
# Disc length: 2072 seconds
#
#
# Revision: 0
# Processed by: cddbd v1.5.2PL0 Copyright (c) Steve Scherf et al.
# Submitted via: FreeRIP 2.951 
#
DISCID=9d08160c
DTITLE=Mel com terra - Doido Por Forró
DYEAR=1992
DGENRE=forró
TTITLE0=Eu, você e o amor
TTITLE1=Cariri que eu amo!
TTITLE2=Fica comigo
TTITLE3=Fogueira da paixão
TTITLE4=Vem dançar forró
TTITLE5=Quente de suar
TTITLE6=Quadro de São Luiz
TTITLE7=Meu cheiro
TTITLE8=Doido por forró
TTITLE9=Sala de reunião
TTITLE10=Querida, cheguei!
TTITLE11=Você voltou
EXTD=
EXTT0=
EXTT1=
EXTT2=
EXTT3=
EXTT4=
EXTT5=
EXTT6=
EXTT7=
EXTT8=
EXTT9=
EXTT10=
EXTT11=
PLAYORDER=
